PathFileType	4	(X/Y/Z)	/Users/niels/Desktop/University/Third Semester/Perception and Action/Exam/Gymnastics Motion Tracking/Code for Gym Tracking/Analyzed Data/Webcam_Backflip/id5_3_trajectory_Sports2D/id5_3_trajectory_Sports2D_px_person00.trc
DataRate	CameraRate	NumFrames	NumMarkers	Units	OrigDataRate	OrigDataStartFrame	OrigNumFrames
29.808917197452228	29.808917197452228	8	22	m	29.808917197452228	98	157
Frame#	Time	Hip			RHip			RKnee			RAnkle			RBigToe			RSmallToe			RHeel			LHip			LKnee			LAnkle			LBigToe			LSmallToe			LHeel			Neck			Head			Nose			RShoulder			RElbow			RWrist			LShoulder			LElbow			LWrist		
		X1	Y1	Z1	X2	Y2	Z2	X3	Y3	Z3	X4	Y4	Z4	X5	Y5	Z5	X6	Y6	Z6	X7	Y7	Z7	X8	Y8	Z8	X9	Y9	Z9	X10	Y10	Z10	X11	Y11	Z11	X12	Y12	Z12	X13	Y13	Z13	X14	Y14	Z14	X15	Y15	Z15	X16	Y16	Z16	X17	Y17	Z17	X18	Y18	Z18	X19	Y19	Z19	X20	Y20	Z20	X21	Y21	Z21	X22	Y22	Z22
98	3.2876068376068375	0.8145102461625909	-0.6251467923587781	0.0	0.8118298220249026	-0.6258744056067901	0.0	0.8433796544910912	-0.723820300688747	0.0	0.806466723742607	-0.8270082467652558	0.0	0.8420298754225326	-0.8406589263942266	0.0	0.8330619539860441	-0.843984041780479	0.0	0.7957961630158584	-0.8367073145907037	0.0	0.8189099579763498	-0.6255187334501858	0.0	0.8427943083860766	-0.7239488150492379	0.0	0.8090804002527185	-0.8234172094236233	0.0	0.8485506783773009	-0.8355780401426507	0.0	0.8401831042393452	-0.8334010818974752	0.0	0.7959199248611586	-0.8310150763392732	0.0	0.82551330863187	-0.4778352948950388	0.0	0.8467925219534631	-0.4129296731247005	0.0	0.8600854826054836	-0.448431450622574	0.0	0.8190413700836415	-0.49300929388870646	0.0	0.8194901435250103	-0.5438280721042995	0.0	0.8619660531795117	-0.5608147754265014	0.0	0.8199547088234458	-0.49214899962888936	0.0	0.8133399544202935	-0.5340202644649051	0.0	0.8404953345300425	-0.5397664173291645	0.0
99	3.321153846153846	0.8130745189902071	-0.6312334750469556	0.0	0.8100841922386577	-0.6317794471703251	0.0	0.8483505839080144	-0.7267165968114344	0.0	0.806144543210747	-0.8281652719016669	0.0	0.8417769631334707	-0.8418740815291729	0.0	0.8325427506055747	-0.8450715817897418	0.0	0.7949307281101221	-0.8370871522879617	0.0	0.8178261198810419	-0.6312178570204479	0.0	0.8485447425362206	-0.7264085007341338	0.0	0.8094829090717913	-0.8240681916416984	0.0	0.8501956882378483	-0.8365086278816044	0.0	0.84154346337271	-0.834306362466267	0.0	0.7965584103063839	-0.8313104996170821	0.0	0.824032471674417	-0.48473551060499703	0.0	0.8441862138715397	-0.4204406621433816	0.0	0.8586063842608536	-0.4559486838407105	0.0	0.8163071640020226	-0.5007596158861133	0.0	0.8159947347615831	-0.5592848184869199	0.0	0.8605601240150204	-0.5825110027871403	0.0	0.8206567393000513	-0.5004922454563268	0.0	0.8203721032601117	-0.5548850404825745	0.0	0.854986863661803	-0.5698370579584192	0.0
100	3.3547008547008548	0.8120059751254589	-0.6308284820323578	0.0	0.8085867606083901	-0.6311144497540611	0.0	0.8526544428948473	-0.7237569828483577	0.0	0.8061155448816566	-0.8236623237526091	0.0	0.8419796967024012	-0.83831311456585	0.0	0.8319924867195099	-0.8412323523310828	0.0	0.7943574917110766	-0.8327106442101913	0.0	0.817182386503477	-0.6301858911398208	0.0	0.8533867043654366	-0.7228759769970032	0.0	0.8104694874462949	-0.8186658479960639	0.0	0.8521077809794408	-0.8327292547472309	0.0	0.8436662494947565	-0.830241405609101	0.0	0.7976635792175487	-0.826838208292325	0.0	0.822528508185014	-0.484902132330308	0.0	0.8419756594892355	-0.42115814491209047	0.0	0.8571774595732816	-0.4565947388099005	0.0	0.8136182689996118	-0.5021957189815635	0.0	0.8123951632650477	-0.566946296849343	0.0	0.8559280756760004	-0.597720200281412	0.0	0.8208754365441413	-0.5018547616834412	0.0	0.8248400511156012	-0.564291730305211	0.0	0.8623950341543304	-0.5887297130299728	0.0
101	3.388247863247863	0.8115229430687058	-0.6251509604692311	0.0	0.8075727722639595	-0.625103756098797	0.0	0.8556803482899303	-0.7164925581100544	0.0	0.8060616614894737	-0.8151429856547919	0.0	0.8426490784750348	-0.8309143534724941	0.0	0.831603129689339	-0.8336413945722502	0.0	0.7939134535689745	-0.8251769041842992	0.0	0.8170935717580837	-0.623797881510493	0.0	0.8565077356546418	-0.7151082038461314	0.0	0.8115091722183968	-0.8091306462869698	0.0	0.8539273005507164	-0.8252774542367582	0.0	0.8458882873003193	-0.8223845510611029	0.0	0.7986163865989336	-0.8192035305550374	0.0	0.820908362990247	-0.4794765098450428	0.0	0.8399308522518082	-0.41618132488260656	0.0	0.8556803149087642	-0.45153201430563633	0.0	0.8109867228770354	-0.4982725981434513	0.0	0.8090724110903846	-0.5673904120042024	0.0	0.8492362793283603	-0.6059817544473484	0.0	0.8205192092785216	-0.49747117075417707	0.0	0.8265330697457685	-0.5643637257772784	0.0	0.8633495865626785	-0.5977842308261831	0.0
102	3.4217948717948716	0.8116250045534277	-0.6157513830682522	0.0	0.8071724683779399	-0.615270294201382	0.0	0.8570526097812105	-0.7066563779833618	0.0	0.8058390722964732	-0.8044141210407721	0.0	0.8436068709248158	-0.8209873776535278	0.0	0.8315345616345774	-0.8238070622775684	0.0	0.7936213691965569	-0.8160378922349045	0.0	0.8174725451884223	-0.6137213451296364	0.0	0.8574558243878578	-0.7049882588736575	0.0	0.8121289490679017	-0.7976089172812314	0.0	0.8551246205036909	-0.8155697417473761	0.0	0.8474478422013211	-0.8123223081307013	0.0	0.7989049923105834	-0.8100051011715985	0.0	0.8191236552089143	-0.4700042156381123	0.0	0.837860615484781	-0.4070134740622931	0.0	0.8539988721712642	-0.44227501715854	0.0	0.8085199722656259	-0.49024470474807497	0.0	0.8061780551426472	-0.5619806223689882	0.0	0.8415665811280727	-0.607712098349307	0.0	0.8195575099321278	-0.48886630049185764	0.0	0.8257034576862874	-0.5578368142755425	0.0	0.8595823108292544	-0.5990988655422571	0.0
103	3.45534188034188	0.8120785640241155	-0.6042383476453239	0.0	0.8073587858954794	-0.6032123233562269	0.0	0.8566752754411355	-0.6957984368216864	0.0	0.8054595860883411	-0.7930314502406264	0.0	0.844513005234714	-0.8099529951509471	0.0	0.8317407028491527	-0.813184752216836	0.0	0.7935360147089581	-0.8065319227781935	0.0	0.8179623385154875	-0.6016200601948123	0.0	0.8562322939247918	-0.6940865677836889	0.0	0.8120582068159573	-0.7858344494966456	0.0	0.8552376844309734	-0.8050069340742422	0.0	0.8478288866826735	-0.8015364153289803	0.0	0.7983019683728217	-0.8005158948056242	0.0	0.8171826433859058	-0.45817496927963497	0.0	0.8356739688910257	-0.39526373354287325	0.0	0.8520582781849599	-0.4303930217646591	0.0	0.8064004624742181	-0.47953556604158465	0.0	0.8036836516677819	-0.552459134269401	0.0	0.8337789257436572	-0.6040361249582651	0.0	0.8179658276452203	-0.47759933129541443	0.0	0.8228357700313896	-0.5472710671323667	0.0	0.8530721851969632	-0.5947723184662966	0.0
104	3.488888888888889	0.8125639861206331	-0.5920614189351668	0.0	0.8079753809909638	-0.5904399939784275	0.0	0.854687113251315	-0.6850873636731	0.0	0.8049904659131516	-0.782159179873825	0.0	0.8450336931968405	-0.7990984625023808	0.0	0.8319671459598548	-0.8029513758070544	0.0	0.7936000933693692	-0.7975272044509027	0.0	0.8181003042914468	-0.588980065243127	0.0	0.8532218072289353	-0.6835084930487711	0.0	0.8112763785567423	-0.7749313664974551	0.0	0.8541622559537079	-0.7946851959558184	0.0	0.8469917600835528	-0.7911087084472533	0.0	0.7969121146284739	-0.7916020466668613	0.0	0.8151417027470259	-0.4455904726178659	0.0	0.8333682164567687	-0.38245394856531895	0.0	0.8498473486913289	-0.41736730588568577	0.0	0.8047835096844123	-0.4676016654085162	0.0	0.8015058693821799	-0.540669021505421	0.0	0.8265297229382746	-0.5965241342509041	0.0	0.8157803314083572	-0.465158617844359	0.0	0.8185383839039289	-0.5347970530555897	0.0	0.8456197102042812	-0.5866565267102724	0.0
105	3.5224358974358974	0.8128470152112305	-0.580396005046636	0.0	0.8087997403566338	-0.5782528171078337	0.0	0.8513699550133866	-0.6752991240707495	0.0	0.8044796908833616	-0.7725890195124572	0.0	0.8450032430448282	-0.7893999464647402	0.0	0.8319370163604696	-0.7938912742709079	0.0	0.7936595460639829	-0.7895360303123495	0.0	0.8175931203310562	-0.5770279661071244	0.0	0.8490044333591455	-0.673948908047752	0.0	0.8099553973758715	-0.7655676086084562	0.0	0.8521916363509475	-0.7853725549091243	0.0	0.8453157686096067	-0.7817742299691266	0.0	0.7950853946500611	-0.7837400516532679	0.0	0.8131071096632315	-0.4335500227622843	0.0	0.8309826235724561	-0.36988786382416683	0.0	0.8474227752264724	-0.40450893523929293	0.0	0.8037232358258972	-0.4557571063531283	0.0	0.7996131663893115	-0.5283440350537746	0.0	0.8203061202559099	-0.5868848919347637	0.0	0.8132000521065008	-0.4528859706783253	0.0	0.8136058061989863	-0.5220809555776257	0.0	0.8386906444544426	-0.5763759303419351	0.0
